<svg xmlns="http://www.w3.org/2000/svg" viewBox="0 0 1514 248" width="1514" height="248">
  <g fill="#F2CB14">
    <g transform="translate(50.00 50.00) scale(0.250000 0.250000)"><g transform="translate(0, 588.0) scale(0.1, -0.1)"><path d="M458 5860 c-245 -3 -450 -8 -454 -13 -4 -4 1 -14 12 -21 18 -14 18
-15 1 -21 -16 -7 -17 -31 -17 -305 l0 -299 23 -3 c29 -4 29 -32 0 -36 -13 -2
-23 -10 -23 -18 0 -12 94 -14 658 -14 724 -1 1066 -11 1152 -35 30 -8 66 -15
80 -15 14 0 43 -9 65 -20 22 -11 47 -20 55 -20 21 -2 108 -48 174 -93 60 -42
160 -152 211 -232 89 -143 128 -273 150 -506 13 -137 -31 -361 -99 -509 -48
-102 -177 -261 -250 -308 -62 -40 -203 -112 -218 -112 -7 0 -26 -7 -42 -15
-51 -27 -173 -55 -372 -85 -121 -19 -185 -20 -850 -21 -526 -1 -710 -4 -684
-12 19 -6 37 -12 39 -14 3 -2 -12 -18 -32 -37 l-37 -34 0 -265 c0 -201 3 -269
12 -277 7 -5 24 -19 38 -30 21 -17 23 -21 10 -30 -8 -5 -26 -10 -40 -11 -25
-1 -25 -1 3 -9 16 -5 373 -9 794 -10 421 0 769 -3 773 -5 4 -3 52 -9 106 -15
180 -19 402 -98 529 -186 36 -25 117 -108 141 -144 13 -19 43 -62 67 -95 41
-58 60 -96 108 -220 l23 -60 1 -770 0 -770 24 -38 c23 -38 101 -87 139 -87 10
0 35 -9 57 -20 35 -18 59 -20 207 -20 92 0 169 4 173 9 3 5 34 19 70 31 78 26
118 63 134 124 8 31 11 268 11 789 0 804 -3 855 -55 1031 -32 106 -45 141 -78
201 -61 109 -73 126 -170 239 -57 67 -248 238 -314 282 -53 35 -64 54 -40 74
14 12 95 69 151 106 121 81 256 251 353 445 58 117 96 253 131 474 10 61 23
120 30 132 8 15 12 87 12 238 0 177 -3 220 -15 239 -9 13 -20 61 -25 107 -11
96 -48 249 -80 329 -12 30 -27 69 -34 85 -6 17 -27 57 -46 90 -19 33 -37 65
-40 70 -3 6 -26 42 -52 82 -102 154 -311 343 -476 430 -48 25 -91 49 -97 53
-27 20 -225 88 -291 99 -27 5 -78 16 -114 24 -121 29 -264 47 -455 57 -104 6
-253 15 -330 20 -77 5 -207 9 -290 8 -82 -2 -351 -5 -597 -8z m2879 -2022 c-2
-13 -4 -5 -4 17 -1 22 1 32 4 23 2 -10 2 -28 0 -40z m-81 -396 c-12 -11 -18 7
-10 30 l8 23 4 -23 c2 -13 1 -26 -2 -30z m-1838 -309 c-15 -2 -42 -2 -60 0
-18 2 -6 4 27 4 33 0 48 -2 33 -4z m1522 -603 c0 -5 -4 -10 -9 -10 -6 0 -13 5
-16 10 -3 6 1 10 9 10 9 0 16 -4 16 -10z m-340 -2335 c0 -8 -4 -15 -10 -15 -5
0 -10 7 -10 15 0 8 5 15 10 15 6 0 10 -7 10 -15z m737 -27 c-3 -8 -6 -5 -6 6
-1 11 2 17 5 13 3 -3 4 -12 1 -19z"/></g></g>
    <g transform="translate(146.00 88.00) scale(0.250000 0.250000)"><g transform="translate(0, 436.0) scale(0.1, -0.1)"><path d="M1710 4346 c-14 -8 -56 -17 -95 -21 -77 -8 -163 -25 -240 -48 -27 -9
-72 -22 -100 -30 -161 -48 -423 -197 -564 -321 -32 -28 -76 -67 -98 -86 -65
-56 -173 -183 -173 -203 0 -10 -15 -37 -33 -60 -90 -113 -231 -407 -282 -587
-7 -25 -20 -62 -29 -84 -9 -21 -16 -49 -16 -62 0 -13 -6 -41 -14 -61 -7 -21
-19 -82 -25 -136 -6 -55 -18 -108 -26 -120 -22 -32 -22 -886 0 -920 8 -12 19
-56 25 -97 15 -101 62 -262 115 -395 27 -70 151 -286 201 -354 19 -25 51 -71
71 -101 36 -53 131 -155 203 -215 59 -49 160 -125 167 -125 3 0 14 -7 23 -15
21 -19 265 -145 282 -145 7 -1 31 -9 53 -20 22 -11 47 -19 56 -20 9 0 45 -9
80 -19 84 -25 249 -58 324 -66 32 -3 73 -12 89 -20 43 -22 614 -22 655 0 16 8
59 19 97 25 232 36 447 109 604 204 142 87 300 216 357 293 15 21 51 67 79
103 74 95 165 261 244 448 47 110 7 233 -94 285 -89 45 -145 59 -272 64 -138
6 -203 -7 -292 -60 -64 -38 -96 -76 -148 -176 -22 -41 -46 -87 -54 -103 -30
-54 -188 -225 -253 -271 -93 -67 -232 -138 -297 -153 -30 -7 -73 -18 -95 -24
-49 -13 -393 -14 -455 -2 -189 40 -205 45 -325 104 -123 60 -166 92 -308 228
-105 100 -136 144 -220 315 -47 97 -64 138 -79 200 -6 22 -17 62 -25 89 -17
58 -43 259 -43 333 0 37 4 55 14 59 8 3 685 6 1505 7 1680 2 1518 -7 1529 84
12 97 6 403 -10 568 -9 94 -20 211 -23 260 -6 88 -12 113 -62 280 -22 72 -78
207 -103 245 -5 8 -17 29 -26 45 -23 42 -83 134 -111 170 -30 39 -32 41 -75
101 -54 74 -193 192 -357 302 -60 40 -290 162 -308 162 -5 1 -26 9 -48 20 -22
11 -48 19 -58 20 -10 0 -31 7 -46 15 -35 17 -140 43 -236 56 -38 6 -104 17
-145 26 -106 22 -475 28 -510 9z m385 -596 c4 -6 -7 -10 -24 -10 -17 0 -31 5
-31 10 0 6 11 10 24 10 14 0 28 -4 31 -10z m120 -55 c162 -31 312 -97 450
-199 125 -93 247 -241 311 -376 39 -81 64 -179 98 -378 3 -19 2 -42 -4 -51 -9
-17 -68 -18 -1086 -19 -633 0 -1087 4 -1102 9 -22 9 -23 12 -17 62 16 115 102
331 183 457 57 88 72 108 150 185 175 175 327 263 522 301 41 7 93 18 115 23
59 14 277 6 380 -14z m1522 -637 c-3 -8 -6 -5 -6 6 -1 11 2 17 5 13 3 -3 4
-12 1 -19z m-2867 -1679 c0 -5 -4 -9 -10 -9 -5 0 -10 7 -10 16 0 8 5 12 10 9
6 -3 10 -10 10 -16z m-750 -49 c0 -10 -4 -21 -9 -25 -12 -7 -25 31 -16 45 9
15 25 2 25 -20z m3630 -157 c0 -12 -4 -25 -10 -28 -6 -4 -10 11 -10 37 0 31 3
39 10 28 5 -8 10 -25 10 -37z m-173 -365 c-3 -8 -6 -5 -6 6 -1 11 2 17 5 13 3
-3 4 -12 1 -19z m-2143 -67 c3 -4 3 -11 0 -14 -8 -8 -34 3 -34 14 0 11 27 12
34 0z m-201 -598 c-7 -2 -19 -2 -25 0 -7 3 -2 5 12 5 14 0 19 -2 13 -5z m360
-80 c-7 -2 -21 -2 -30 0 -10 3 -4 5 12 5 17 0 24 -2 18 -5z m870 0 c-13 -2
-33 -2 -45 0 -13 2 -3 4 22 4 25 0 35 -2 23 -4z"/></g></g>
    <path transform="translate(246.75 198.00) scale(0.098798 -0.098798)" d="M744 20Q643 -24 497 -24Q185 -24 79 185Q74 197 74 208Q74 245 111.5 274.5Q149 304 187 304Q223 304 245 274Q304 137 496 137Q753 137 753 296Q753 352 703 385Q668 407 521 444Q350 486 305 503Q86 587 86 777Q86 937 222 1019Q334 1086 504 1086Q770 1086 869 952L871 950Q881 937 881 923Q881 886 835 860Q796 836 757 836Q721 836 701 860Q646 925 517 925Q275 925 275 797Q275 728 361 695Q383 686 519 650Q697 602 729 590Q953 509 953 315Q953 111 744 20Z"/>
    <path transform="translate(342.87 198.00) scale(0.098798 -0.098798)" d="M827 41Q707 -24 566 -24Q317 -24 185 132Q61 278 61 531Q61 826 227 968Q366 1086 566 1086Q811 1086 945 933Q1071 790 1071 546Q1071 174 827 41ZM801 803Q720 924 566 924Q407 924 327 800Q261 696 261 531Q261 365 327 262Q406 137 566 137Q726 137 805 265Q871 370 871 537Q871 698 801 803Z"/>
    <path transform="translate(450.34 198.00) scale(0.098798 -0.098798)" d="M938 -31Q848 -31 848 23V548Q848 676 794 780Q732 902 619 922Q610 921 584 921L289 922L288 17Q282 -32 195 -32Q107 -32 107 18V1020Q107 1080 207 1081L527 1085Q541 1087 585 1087Q809 1087 932 925Q1043 778 1043 548V22Q1037 -31 938 -31Z"/>
    <path transform="translate(557.81 198.00) scale(0.098798 -0.098798)" d="M954 -32Q867 -32 861 17V116Q753 -23 573 -23Q346 -23 218 158Q107 315 107 548Q107 778 217 925Q340 1087 564 1087Q608 1087 622 1085L942 1081Q1043 1080 1043 1020V18Q1043 -32 954 -32ZM565 921Q537 921 530 922Q409 900 351 771Q306 672 306 533Q306 377 368 269Q443 138 588 138Q729 138 812 271Q841 318 843 540L845 921Z"/>
    <path transform="translate(665.28 198.00) scale(0.098798 -0.098798)" d="M518 872H355V48Q355 -18 261 -18Q161 -18 161 48V872H96Q45 872 45 950Q45 1036 96 1036H161V1318Q161 1384 256 1385Q355 1386 355 1326V1036H518Q573 1036 573 954Q573 872 518 872Z"/>
    <g transform="translate(723.16 88.00) scale(0.250000 0.250000)"><g transform="translate(0, 436.0) scale(0.1, -0.1)"><path d="M1710 4346 c-14 -8 -56 -17 -95 -21 -77 -8 -163 -25 -240 -48 -27 -9
-72 -22 -100 -30 -161 -48 -423 -197 -564 -321 -32 -28 -76 -67 -98 -86 -65
-56 -173 -183 -173 -203 0 -10 -15 -37 -33 -60 -90 -113 -231 -407 -282 -587
-7 -25 -20 -62 -29 -84 -9 -21 -16 -49 -16 -62 0 -13 -6 -41 -14 -61 -7 -21
-19 -82 -25 -136 -6 -55 -18 -108 -26 -120 -22 -32 -22 -886 0 -920 8 -12 19
-56 25 -97 15 -101 62 -262 115 -395 27 -70 151 -286 201 -354 19 -25 51 -71
71 -101 36 -53 131 -155 203 -215 59 -49 160 -125 167 -125 3 0 14 -7 23 -15
21 -19 265 -145 282 -145 7 -1 31 -9 53 -20 22 -11 47 -19 56 -20 9 0 45 -9
80 -19 84 -25 249 -58 324 -66 32 -3 73 -12 89 -20 43 -22 614 -22 655 0 16 8
59 19 97 25 232 36 447 109 604 204 142 87 300 216 357 293 15 21 51 67 79
103 74 95 165 261 244 448 47 110 7 233 -94 285 -89 45 -145 59 -272 64 -138
6 -203 -7 -292 -60 -64 -38 -96 -76 -148 -176 -22 -41 -46 -87 -54 -103 -30
-54 -188 -225 -253 -271 -93 -67 -232 -138 -297 -153 -30 -7 -73 -18 -95 -24
-49 -13 -393 -14 -455 -2 -189 40 -205 45 -325 104 -123 60 -166 92 -308 228
-105 100 -136 144 -220 315 -47 97 -64 138 -79 200 -6 22 -17 62 -25 89 -17
58 -43 259 -43 333 0 37 4 55 14 59 8 3 685 6 1505 7 1680 2 1518 -7 1529 84
12 97 6 403 -10 568 -9 94 -20 211 -23 260 -6 88 -12 113 -62 280 -22 72 -78
207 -103 245 -5 8 -17 29 -26 45 -23 42 -83 134 -111 170 -30 39 -32 41 -75
101 -54 74 -193 192 -357 302 -60 40 -290 162 -308 162 -5 1 -26 9 -48 20 -22
11 -48 19 -58 20 -10 0 -31 7 -46 15 -35 17 -140 43 -236 56 -38 6 -104 17
-145 26 -106 22 -475 28 -510 9z m385 -596 c4 -6 -7 -10 -24 -10 -17 0 -31 5
-31 10 0 6 11 10 24 10 14 0 28 -4 31 -10z m120 -55 c162 -31 312 -97 450
-199 125 -93 247 -241 311 -376 39 -81 64 -179 98 -378 3 -19 2 -42 -4 -51 -9
-17 -68 -18 -1086 -19 -633 0 -1087 4 -1102 9 -22 9 -23 12 -17 62 16 115 102
331 183 457 57 88 72 108 150 185 175 175 327 263 522 301 41 7 93 18 115 23
59 14 277 6 380 -14z m1522 -637 c-3 -8 -6 -5 -6 6 -1 11 2 17 5 13 3 -3 4
-12 1 -19z m-2867 -1679 c0 -5 -4 -9 -10 -9 -5 0 -10 7 -10 16 0 8 5 12 10 9
6 -3 10 -10 10 -16z m-750 -49 c0 -10 -4 -21 -9 -25 -12 -7 -25 31 -16 45 9
15 25 2 25 -20z m3630 -157 c0 -12 -4 -25 -10 -28 -6 -4 -10 11 -10 37 0 31 3
39 10 28 5 -8 10 -25 10 -37z m-173 -365 c-3 -8 -6 -5 -6 6 -1 11 2 17 5 13 3
-3 4 -12 1 -19z m-2143 -67 c3 -4 3 -11 0 -14 -8 -8 -34 3 -34 14 0 11 27 12
34 0z m-201 -598 c-7 -2 -19 -2 -25 0 -7 3 -2 5 12 5 14 0 19 -2 13 -5z m360
-80 c-7 -2 -21 -2 -30 0 -10 3 -4 5 12 5 17 0 24 -2 18 -5z m870 0 c-13 -2
-33 -2 -45 0 -13 2 -3 4 22 4 25 0 35 -2 23 -4z"/></g></g>
    <g transform="translate(908.97 50.00) scale(0.250000 0.250000)"><g transform="translate(0, 588.0) scale(0.1, -0.1)"><path d="M458 5860 c-245 -3 -450 -8 -454 -13 -4 -4 1 -14 12 -21 18 -14 18
-15 1 -21 -16 -7 -17 -31 -17 -305 l0 -299 23 -3 c29 -4 29 -32 0 -36 -13 -2
-23 -10 -23 -18 0 -12 94 -14 658 -14 724 -1 1066 -11 1152 -35 30 -8 66 -15
80 -15 14 0 43 -9 65 -20 22 -11 47 -20 55 -20 21 -2 108 -48 174 -93 60 -42
160 -152 211 -232 89 -143 128 -273 150 -506 13 -137 -31 -361 -99 -509 -48
-102 -177 -261 -250 -308 -62 -40 -203 -112 -218 -112 -7 0 -26 -7 -42 -15
-51 -27 -173 -55 -372 -85 -121 -19 -185 -20 -850 -21 -526 -1 -710 -4 -684
-12 19 -6 37 -12 39 -14 3 -2 -12 -18 -32 -37 l-37 -34 0 -265 c0 -201 3 -269
12 -277 7 -5 24 -19 38 -30 21 -17 23 -21 10 -30 -8 -5 -26 -10 -40 -11 -25
-1 -25 -1 3 -9 16 -5 373 -9 794 -10 421 0 769 -3 773 -5 4 -3 52 -9 106 -15
180 -19 402 -98 529 -186 36 -25 117 -108 141 -144 13 -19 43 -62 67 -95 41
-58 60 -96 108 -220 l23 -60 1 -770 0 -770 24 -38 c23 -38 101 -87 139 -87 10
0 35 -9 57 -20 35 -18 59 -20 207 -20 92 0 169 4 173 9 3 5 34 19 70 31 78 26
118 63 134 124 8 31 11 268 11 789 0 804 -3 855 -55 1031 -32 106 -45 141 -78
201 -61 109 -73 126 -170 239 -57 67 -248 238 -314 282 -53 35 -64 54 -40 74
14 12 95 69 151 106 121 81 256 251 353 445 58 117 96 253 131 474 10 61 23
120 30 132 8 15 12 87 12 238 0 177 -3 220 -15 239 -9 13 -20 61 -25 107 -11
96 -48 249 -80 329 -12 30 -27 69 -34 85 -6 17 -27 57 -46 90 -19 33 -37 65
-40 70 -3 6 -26 42 -52 82 -102 154 -311 343 -476 430 -48 25 -91 49 -97 53
-27 20 -225 88 -291 99 -27 5 -78 16 -114 24 -121 29 -264 47 -455 57 -104 6
-253 15 -330 20 -77 5 -207 9 -290 8 -82 -2 -351 -5 -597 -8z m2879 -2022 c-2
-13 -4 -5 -4 17 -1 22 1 32 4 23 2 -10 2 -28 0 -40z m-81 -396 c-12 -11 -18 7
-10 30 l8 23 4 -23 c2 -13 1 -26 -2 -30z m-1838 -309 c-15 -2 -42 -2 -60 0
-18 2 -6 4 27 4 33 0 48 -2 33 -4z m1522 -603 c0 -5 -4 -10 -9 -10 -6 0 -13 5
-16 10 -3 6 1 10 9 10 9 0 16 -4 16 -10z m-340 -2335 c0 -8 -4 -15 -10 -15 -5
0 -10 7 -10 15 0 8 5 15 10 15 6 0 10 -7 10 -15z m737 -27 c-3 -8 -6 -5 -6 6
-1 11 2 17 5 13 3 -3 4 -12 1 -19z"/></g></g>
    <g transform="translate(1004.97 88.00) scale(0.250000 0.250000)"><g transform="translate(0, 436.0) scale(0.1, -0.1)"><path d="M1710 4346 c-14 -8 -56 -17 -95 -21 -77 -8 -163 -25 -240 -48 -27 -9
-72 -22 -100 -30 -161 -48 -423 -197 -564 -321 -32 -28 -76 -67 -98 -86 -65
-56 -173 -183 -173 -203 0 -10 -15 -37 -33 -60 -90 -113 -231 -407 -282 -587
-7 -25 -20 -62 -29 -84 -9 -21 -16 -49 -16 -62 0 -13 -6 -41 -14 -61 -7 -21
-19 -82 -25 -136 -6 -55 -18 -108 -26 -120 -22 -32 -22 -886 0 -920 8 -12 19
-56 25 -97 15 -101 62 -262 115 -395 27 -70 151 -286 201 -354 19 -25 51 -71
71 -101 36 -53 131 -155 203 -215 59 -49 160 -125 167 -125 3 0 14 -7 23 -15
21 -19 265 -145 282 -145 7 -1 31 -9 53 -20 22 -11 47 -19 56 -20 9 0 45 -9
80 -19 84 -25 249 -58 324 -66 32 -3 73 -12 89 -20 43 -22 614 -22 655 0 16 8
59 19 97 25 232 36 447 109 604 204 142 87 300 216 357 293 15 21 51 67 79
103 74 95 165 261 244 448 47 110 7 233 -94 285 -89 45 -145 59 -272 64 -138
6 -203 -7 -292 -60 -64 -38 -96 -76 -148 -176 -22 -41 -46 -87 -54 -103 -30
-54 -188 -225 -253 -271 -93 -67 -232 -138 -297 -153 -30 -7 -73 -18 -95 -24
-49 -13 -393 -14 -455 -2 -189 40 -205 45 -325 104 -123 60 -166 92 -308 228
-105 100 -136 144 -220 315 -47 97 -64 138 -79 200 -6 22 -17 62 -25 89 -17
58 -43 259 -43 333 0 37 4 55 14 59 8 3 685 6 1505 7 1680 2 1518 -7 1529 84
12 97 6 403 -10 568 -9 94 -20 211 -23 260 -6 88 -12 113 -62 280 -22 72 -78
207 -103 245 -5 8 -17 29 -26 45 -23 42 -83 134 -111 170 -30 39 -32 41 -75
101 -54 74 -193 192 -357 302 -60 40 -290 162 -308 162 -5 1 -26 9 -48 20 -22
11 -48 19 -58 20 -10 0 -31 7 -46 15 -35 17 -140 43 -236 56 -38 6 -104 17
-145 26 -106 22 -475 28 -510 9z m385 -596 c4 -6 -7 -10 -24 -10 -17 0 -31 5
-31 10 0 6 11 10 24 10 14 0 28 -4 31 -10z m120 -55 c162 -31 312 -97 450
-199 125 -93 247 -241 311 -376 39 -81 64 -179 98 -378 3 -19 2 -42 -4 -51 -9
-17 -68 -18 -1086 -19 -633 0 -1087 4 -1102 9 -22 9 -23 12 -17 62 16 115 102
331 183 457 57 88 72 108 150 185 175 175 327 263 522 301 41 7 93 18 115 23
59 14 277 6 380 -14z m1522 -637 c-3 -8 -6 -5 -6 6 -1 11 2 17 5 13 3 -3 4
-12 1 -19z m-2867 -1679 c0 -5 -4 -9 -10 -9 -5 0 -10 7 -10 16 0 8 5 12 10 9
6 -3 10 -10 10 -16z m-750 -49 c0 -10 -4 -21 -9 -25 -12 -7 -25 31 -16 45 9
15 25 2 25 -20z m3630 -157 c0 -12 -4 -25 -10 -28 -6 -4 -10 11 -10 37 0 31 3
39 10 28 5 -8 10 -25 10 -37z m-173 -365 c-3 -8 -6 -5 -6 6 -1 11 2 17 5 13 3
-3 4 -12 1 -19z m-2143 -67 c3 -4 3 -11 0 -14 -8 -8 -34 3 -34 14 0 11 27 12
34 0z m-201 -598 c-7 -2 -19 -2 -25 0 -7 3 -2 5 12 5 14 0 19 -2 13 -5z m360
-80 c-7 -2 -21 -2 -30 0 -10 3 -4 5 12 5 17 0 24 -2 18 -5z m870 0 c-13 -2
-33 -2 -45 0 -13 2 -3 4 22 4 25 0 35 -2 23 -4z"/></g></g>
    <path transform="translate(1105.73 198.00) scale(0.098798 -0.098798)" d="M672 1313H527Q358 1313 358 1108Q358 1087 361 1048Q364 1005 364 987H564Q632 979 632 898Q632 824 564 824H365V37Q365 -41 267 -41Q171 -41 171 37V824H89Q32 824 32 895Q32 987 89 987H170Q170 1004 169 1044Q169 1080 169 1100Q169 1491 492 1491H673Q746 1481 746 1404Q746 1323 672 1313Z"/>
    <path transform="translate(1165.09 198.00) scale(0.098798 -0.098798)" d="M225 -18Q124 -18 124 57V1270Q124 1325 171 1391Q222 1461 277 1461Q319 1461 319 1399V57Q319 -18 225 -18Z"/>
    <g transform="translate(1211.70 88.00) scale(0.250000 0.250000)"><g transform="translate(0, 436.0) scale(0.1, -0.1)"><path d="M1710 4346 c-14 -8 -56 -17 -95 -21 -77 -8 -163 -25 -240 -48 -27 -9
-72 -22 -100 -30 -161 -48 -423 -197 -564 -321 -32 -28 -76 -67 -98 -86 -65
-56 -173 -183 -173 -203 0 -10 -15 -37 -33 -60 -90 -113 -231 -407 -282 -587
-7 -25 -20 -62 -29 -84 -9 -21 -16 -49 -16 -62 0 -13 -6 -41 -14 -61 -7 -21
-19 -82 -25 -136 -6 -55 -18 -108 -26 -120 -22 -32 -22 -886 0 -920 8 -12 19
-56 25 -97 15 -101 62 -262 115 -395 27 -70 151 -286 201 -354 19 -25 51 -71
71 -101 36 -53 131 -155 203 -215 59 -49 160 -125 167 -125 3 0 14 -7 23 -15
21 -19 265 -145 282 -145 7 -1 31 -9 53 -20 22 -11 47 -19 56 -20 9 0 45 -9
80 -19 84 -25 249 -58 324 -66 32 -3 73 -12 89 -20 43 -22 614 -22 655 0 16 8
59 19 97 25 232 36 447 109 604 204 142 87 300 216 357 293 15 21 51 67 79
103 74 95 165 261 244 448 47 110 7 233 -94 285 -89 45 -145 59 -272 64 -138
6 -203 -7 -292 -60 -64 -38 -96 -76 -148 -176 -22 -41 -46 -87 -54 -103 -30
-54 -188 -225 -253 -271 -93 -67 -232 -138 -297 -153 -30 -7 -73 -18 -95 -24
-49 -13 -393 -14 -455 -2 -189 40 -205 45 -325 104 -123 60 -166 92 -308 228
-105 100 -136 144 -220 315 -47 97 -64 138 -79 200 -6 22 -17 62 -25 89 -17
58 -43 259 -43 333 0 37 4 55 14 59 8 3 685 6 1505 7 1680 2 1518 -7 1529 84
12 97 6 403 -10 568 -9 94 -20 211 -23 260 -6 88 -12 113 -62 280 -22 72 -78
207 -103 245 -5 8 -17 29 -26 45 -23 42 -83 134 -111 170 -30 39 -32 41 -75
101 -54 74 -193 192 -357 302 -60 40 -290 162 -308 162 -5 1 -26 9 -48 20 -22
11 -48 19 -58 20 -10 0 -31 7 -46 15 -35 17 -140 43 -236 56 -38 6 -104 17
-145 26 -106 22 -475 28 -510 9z m385 -596 c4 -6 -7 -10 -24 -10 -17 0 -31 5
-31 10 0 6 11 10 24 10 14 0 28 -4 31 -10z m120 -55 c162 -31 312 -97 450
-199 125 -93 247 -241 311 -376 39 -81 64 -179 98 -378 3 -19 2 -42 -4 -51 -9
-17 -68 -18 -1086 -19 -633 0 -1087 4 -1102 9 -22 9 -23 12 -17 62 16 115 102
331 183 457 57 88 72 108 150 185 175 175 327 263 522 301 41 7 93 18 115 23
59 14 277 6 380 -14z m1522 -637 c-3 -8 -6 -5 -6 6 -1 11 2 17 5 13 3 -3 4
-12 1 -19z m-2867 -1679 c0 -5 -4 -9 -10 -9 -5 0 -10 7 -10 16 0 8 5 12 10 9
6 -3 10 -10 10 -16z m-750 -49 c0 -10 -4 -21 -9 -25 -12 -7 -25 31 -16 45 9
15 25 2 25 -20z m3630 -157 c0 -12 -4 -25 -10 -28 -6 -4 -10 11 -10 37 0 31 3
39 10 28 5 -8 10 -25 10 -37z m-173 -365 c-3 -8 -6 -5 -6 6 -1 11 2 17 5 13 3
-3 4 -12 1 -19z m-2143 -67 c3 -4 3 -11 0 -14 -8 -8 -34 3 -34 14 0 11 27 12
34 0z m-201 -598 c-7 -2 -19 -2 -25 0 -7 3 -2 5 12 5 14 0 19 -2 13 -5z m360
-80 c-7 -2 -21 -2 -30 0 -10 3 -4 5 12 5 17 0 24 -2 18 -5z m870 0 c-13 -2
-33 -2 -45 0 -13 2 -3 4 22 4 25 0 35 -2 23 -4z"/></g></g>
    <path transform="translate(1312.45 198.00) scale(0.098798 -0.098798)" d="M970 225Q851 -24 563 -24Q322 -24 192 135Q73 281 73 527Q73 894 307 1022Q425 1086 564 1086Q823 1086 938 903Q941 897 941 890Q941 852 898.5 819.5Q856 787 816 787Q789 787 774 810Q715 925 571 925Q273 925 273 532Q273 137 561 137Q747 137 803 313Q827 351 869 351Q909 351 946.0 323.5Q983 296 983 257Q983 239 970 225Z"/>
    <path transform="translate(1408.57 198.00) scale(0.098798 -0.098798)" d="M518 872H355V48Q355 -18 261 -18Q161 -18 161 48V872H96Q45 872 45 950Q45 1036 96 1036H161V1318Q161 1384 256 1385Q355 1386 355 1326V1036H518Q573 1036 573 954Q573 872 518 872Z"/>
  </g>
</svg>